<svg xmlns="http://www.w3.org/2000/svg" width="381.221" height="174.276" viewBox="0 0 381.221 174.276">
  <g id="catch-copy" transform="translate(-3816.5 -140.224)">
    <path id="パス_42" data-name="パス 42" d="M28.392-3.3C35.112-1.568,40.32.5,44.072,2.912a2.232,2.232,0,0,0,1.288.448c.9,0,1.4-.56,1.4-1.624,0-2.408-5.88-4.48-17.752-6.216ZM3.192,3.752A60.225,60.225,0,0,0,19.1-1.4a8.834,8.834,0,0,0,1.288.112c.84,0,1.288-.168,1.288-.5,0-.56-1.288-1.456-3.864-2.744A41.908,41.908,0,0,1,2.464,2.52ZM9.744-37.576A112.129,112.129,0,0,0,21.28-38.808a7.089,7.089,0,0,0,1.456.224c.616,0,.952-.168.952-.448,0-.5-.84-1.4-2.632-2.576A54.971,54.971,0,0,1,9.912-38.864a26.73,26.73,0,0,0-3.08-1.344v5.32c0,5.264-1.456,9.464-4.368,12.656l.84.84a14.425,14.425,0,0,0,6.328-11.2H16.3v7.616h2.8v-7.616h5.88l.56-.952c-1.12-1.288-1.9-2.128-2.352-2.576l-.28-.28-2.128,2.52H9.744Zm19.936,3.7c0-.28.056-.672.056-1.232v-2.632a85.837,85.837,0,0,0,12.376-1.008,11.648,11.648,0,0,0,1.68.224c.616,0,.9-.168.9-.5,0-.5-.952-1.344-2.856-2.576a50.909,50.909,0,0,1-12.1,2.576c-.784-.336-1.792-.728-2.856-1.12v5.1c0,4.48-1.456,7.9-4.2,10.248l.784.9a11.3,11.3,0,0,0,6.1-8.68h6.608v7.168h2.856v-7.168h7.56l.5-.952a23.362,23.362,0,0,0-2.856-2.968L42-33.88ZM12.488-7.28v-4.368h24.92V-7.28Zm0-10.976v-3.752h24.92v3.752Zm24.92,5.376H12.488v-4.088h24.92ZM12.488-23.52c-.672-.336-1.68-.728-2.912-1.232v20.72h2.912v-1.96h24.92V-4.76H40.32V-21.168l1.008-.728c.336-.28.448-.5.448-.672,0-.5-.952-1.344-2.912-2.576L37.016-23.3H13.048Zm66.136-1.9a21.569,21.569,0,0,1-3.248,9.016,9.949,9.949,0,0,1-5.656,4.592c-2.24.728-4.144.336-4.928-1.568A13.346,13.346,0,0,1,65.24-21.9,18.737,18.737,0,0,1,71.9-30.128a22.527,22.527,0,0,1,7.056-3.248A40.127,40.127,0,0,1,78.624-25.424Zm19.936-2.3a16.4,16.4,0,0,0-5.88-5.88,17.649,17.649,0,0,0-8.9-2.352,22.926,22.926,0,0,0-10.584,2.464,23.768,23.768,0,0,0-7.168,5.88,16.878,16.878,0,0,0-3.752,7.784A12.078,12.078,0,0,0,63-11.48c1.232,2.744,3.136,4.256,5.712,4.256,2.632,0,5.208-1.9,7.336-4.7a24.8,24.8,0,0,0,3.92-9.856,37.069,37.069,0,0,0,.84-7.672c-.056-1.4-.056-3.192-.168-4.312.5-.056,1.008-.168,1.456-.224A15.837,15.837,0,0,1,91.84-31.92a11.691,11.691,0,0,1,4.928,6.944,19.766,19.766,0,0,1,.728,9.24A12.741,12.741,0,0,1,92.68-7.784a24.642,24.642,0,0,1-6.832,3.3,27.8,27.8,0,0,1-6.72.952A27.249,27.249,0,0,1,76.16-3.7c-.448-.056-.784.168-.784.448-.056.28.224.5.784.56a24.081,24.081,0,0,0,9.016-.056,25.9,25.9,0,0,0,9.24-3.36,12.4,12.4,0,0,0,5.432-7.056,21.523,21.523,0,0,0,.728-7.728A14.91,14.91,0,0,0,98.56-27.72Zm27.1,9.24v-6.832h22.344v6.832Zm22.344-14.336v6.272H125.664v-6.272Zm-21.84-1.232c-1.456-.672-2.632-1.176-3.584-1.512V-2.128l-.336.056c-2.408.336-4.7.672-6.888.84.9,3.136,1.736,4.7,2.464,4.7.448,0,.784-.672.952-1.96A185.943,185.943,0,0,0,139.44-4.144L139.1-5.432q-6.972,1.764-13.44,2.856V-17.248h8.792a33.626,33.626,0,0,0,5.32,9.632c3.64,4.368,9.24,7.672,16.856,10.136a9.253,9.253,0,0,1,2.52-3.08c-6.272-1.456-11.2-3.528-14.728-6.216a66.669,66.669,0,0,0,8.792-6.1c.56.056.952.112,1.288.112.728,0,1.12-.168,1.12-.56,0-.616-1.176-1.68-3.584-3.192a68.6,68.6,0,0,1-8.792,8.792,30.741,30.741,0,0,1-7.112-9.52h11.872v1.624h2.968v-16.24l1.288-.9a.7.7,0,0,0,.392-.56c0-.448-1.064-1.512-3.136-3.136L147.5-34.048H138.1v-4.816c1.4-.5,2.128-1.008,2.128-1.456,0-.728-1.68-1.232-4.984-1.232v7.5Zm77.392,7.28a9.859,9.859,0,0,1,3.36,1.344,4.307,4.307,0,0,1,1.9,3.92c-.056,1.792-.392,3.472-.112,4.312a2.1,2.1,0,0,0,2.072,1.344,1.613,1.613,0,0,0,1.848-1.624,11.078,11.078,0,0,0-.56-4.928,9.4,9.4,0,0,0-3.92-4.368,9.381,9.381,0,0,0-4.144-1.176c-.9-.112-1.232,0-1.288.448C202.664-27.16,202.888-26.88,203.56-26.768Zm-28.952-4.48a4.275,4.275,0,0,1,1.176,3.192c0,1.736.056,5.488.112,7.952a32.394,32.394,0,0,0,.84,7,12.815,12.815,0,0,0,4.032,5.824,10.527,10.527,0,0,0,6.216,2.352c1.4.056,2.632-.112,2.8-.9a3,3,0,0,0-.9-2.24,5.1,5.1,0,0,1-.728-2.968,4.266,4.266,0,0,1,.728-2.128c.28-.336.224-.672,0-.784-.112-.168-.616-.056-1.008.336a7.17,7.17,0,0,0-1.512,2.24,3.872,3.872,0,0,0-.336,1.344c-.056.224-.168.672-.616.728a5.272,5.272,0,0,1-2.576-.168,6.5,6.5,0,0,1-2.632-1.792c-.616-.728-1.456-2.408-1.456-5.824-.056-3.36,0-5.768.112-8.12.168-2.3.112-4.312-.672-5.544a6.411,6.411,0,0,0-2.352-2.128c-.56-.28-1.736-.728-2.072-.112C173.6-32.536,174.1-31.7,174.608-31.248Zm58.184-3.92a8.552,8.552,0,0,0-.28-1.736l-1.176-.112q-.336,4.956-2.856,7.56a3.974,3.974,0,0,0-1.232,2.072,1.611,1.611,0,0,0,.5,1.12,2.292,2.292,0,0,0,1.512.672,2.462,2.462,0,0,0,1.96-1.344,11.9,11.9,0,0,0,1.568-6.608v-.392H266.5a23.739,23.739,0,0,1-1.96,4.312l1.008.728a31.673,31.673,0,0,0,3.752-3.416l1.792-.224c.448-.112.616-.28.616-.56,0-.616-1.176-2.072-3.64-4.424l-1.848,2.352H250.432V-39.2c1.512-.5,2.184-.952,2.184-1.4q0-1.176-5.04-1.176v6.608Zm12.656,12.1a54.142,54.142,0,0,0,4.256-3.416h1.624c2.352,11.48,8.344,20.216,17.864,26.152a11.733,11.733,0,0,1,2.576-2.912,37.947,37.947,0,0,1-13.216-10.976,65.078,65.078,0,0,0,7.784-6.16,5.745,5.745,0,0,0,1.12.112c.672,0,1.12-.168,1.12-.56,0-.672-1.288-1.848-3.752-3.36a68.387,68.387,0,0,1-7.112,8.792,34.1,34.1,0,0,1-4.76-11.088h11.424l.672-.952a29.657,29.657,0,0,0-3.528-3.472l-2.688,3.136H233.464l.616,1.288h11.48c-4.2,3.92-9.968,7-17.136,9.184l.728,1.12a49.069,49.069,0,0,0,15.12-6.1c.672.9,1.12,1.512,1.456,1.96.112.168.168.336.28.5-4.424,4.256-10.416,7.784-18.032,10.64L228.7-8.12c7.616-2.184,13.888-5.208,18.816-9.184a22.353,22.353,0,0,1,1.456,3.192C243.544-8.4,236.1-3.92,226.688-.56l.728,1.176c9.24-2.856,16.744-6.832,22.512-11.7a19.149,19.149,0,0,1,.5,4.256,13.705,13.705,0,0,1-.672,4.592c-.448,1.064-1.512,1.624-3.136,1.624a41.767,41.767,0,0,1-6.888-.672v1.4a23.171,23.171,0,0,1,5.32,1.456,2.124,2.124,0,0,1,1.176,2.016c4.76,0,7.168-3.08,7.168-9.184C253.4-11.536,250.768-17.36,245.448-23.072ZM282.912-10.3l.5,1.232h43.4l.672-1.064a33.858,33.858,0,0,0-3.752-3.752L321.048-10.3Zm25.872,4.312c6.216,2.24,10.864,4.76,13.944,7.5a3.688,3.688,0,0,0,1.9,1.176c1.176,0,1.736-.56,1.736-1.792,0-2.744-5.656-5.432-16.912-8.064ZM283.36,3.472a42.785,42.785,0,0,0,15.176-7.5c1.736,0,2.632-.224,2.632-.672,0-.56-1.344-1.568-4.088-2.8a38.564,38.564,0,0,1-14.448,9.856Zm11.312-27.608v-6.048H315.28v6.048Zm0,7.616V-22.9H315.28v6.384ZM315.28-37.352v5.88H294.672v-5.88Zm-23.576-2.8v27.5h2.968v-2.632H315.28v2.408h2.968V-36.288l1.232-.784a.959.959,0,0,0,.448-.672c0-.392-1.064-1.456-3.136-3.136l-1.9,2.3H295.064Zm89.04,15.344a1.329,1.329,0,0,0,.728-2.072,6.9,6.9,0,0,0-3.416-2.072,8.366,8.366,0,0,0-3.08-.5c-.336,0-.784-.112-.952.224-.224.336,0,.84.5,1.064a8.729,8.729,0,0,1,3.472,2.3A2.893,2.893,0,0,0,380.744-24.808Zm-4.368,2.352a1.349,1.349,0,0,0,.784-2.016c-.5-1.008-2.184-1.9-3.36-2.3a10.282,10.282,0,0,0-3.024-.672c-.28-.056-.784-.056-.952.168-.28.392,0,.784.448,1.12a19.236,19.236,0,0,1,3.248,2.632A3.491,3.491,0,0,0,376.376-22.456Zm-27.888-3.472a24.145,24.145,0,0,0,5.824-1.792c1.736-.672,5.04-2.072,7.112-2.856a21.485,21.485,0,0,1,2.912-.9,22.168,22.168,0,0,0-2.688,2.3,9.417,9.417,0,0,0-2.464,4.536,67.779,67.779,0,0,0-1.288,6.776,29.7,29.7,0,0,0,.112,8.064c.392,2.408,1.064,3.976,2.52,5.152a10.39,10.39,0,0,0,6.048,2.184,34.644,34.644,0,0,0,5.432,0c1.176-.112,1.68-.952,1.232-1.624a4.336,4.336,0,0,0-2.3-1.624,14.039,14.039,0,0,0-3.976-.112,6.494,6.494,0,0,1-4.536-1.12,5.746,5.746,0,0,1-2.184-4.2,32.292,32.292,0,0,1,.168-8.848,26.813,26.813,0,0,1,1.176-5.712,11.5,11.5,0,0,1,3.136-4.2c.952-.84,2.128-1.68,2.856-2.3.168,0,.28-.056.392-.056a55.491,55.491,0,0,1,6.216-.672,33.1,33.1,0,0,1,3.36.448c.9.168,1.568.168,1.96-.5.336-.672-.224-1.68-1.12-2.24-.952-.616-3.248-.784-4.984-.5-1.792.28-5.656,1.232-9.016,2.128-3.472.9-7.336,2.128-9.072,2.632-1.792.56-4.984,1.568-6.664,1.568a7.154,7.154,0,0,1-3.3-.56c-.728-.28-1.68-.672-2.128-.112-.56.616.056,1.96.784,2.688A5.444,5.444,0,0,0,348.488-25.928ZM28.392,81.7c6.72,1.736,11.928,3.808,15.68,6.216a2.232,2.232,0,0,0,1.288.448c.9,0,1.4-.56,1.4-1.624,0-2.408-5.88-4.48-17.752-6.216Zm-25.2,7.056A60.225,60.225,0,0,0,19.1,83.6a8.834,8.834,0,0,0,1.288.112c.84,0,1.288-.168,1.288-.5,0-.56-1.288-1.456-3.864-2.744A41.908,41.908,0,0,1,2.464,87.52ZM9.744,47.424A112.129,112.129,0,0,0,21.28,46.192a7.089,7.089,0,0,0,1.456.224c.616,0,.952-.168.952-.448,0-.5-.84-1.4-2.632-2.576A54.971,54.971,0,0,1,9.912,46.136a26.73,26.73,0,0,0-3.08-1.344v5.32c0,5.264-1.456,9.464-4.368,12.656l.84.84a14.425,14.425,0,0,0,6.328-11.2H16.3v7.616h2.8V52.408h5.88l.56-.952c-1.12-1.288-1.9-2.128-2.352-2.576l-.28-.28-2.128,2.52H9.744Zm19.936,3.7c0-.28.056-.672.056-1.232V47.256a85.837,85.837,0,0,0,12.376-1.008,11.648,11.648,0,0,0,1.68.224c.616,0,.9-.168.9-.5,0-.5-.952-1.344-2.856-2.576a50.909,50.909,0,0,1-12.1,2.576c-.784-.336-1.792-.728-2.856-1.12v5.1c0,4.48-1.456,7.9-4.2,10.248l.784.9a11.3,11.3,0,0,0,6.1-8.68h6.608v7.168h2.856V52.408h7.56l.5-.952a23.362,23.362,0,0,0-2.856-2.968L42,51.12ZM12.488,77.72V73.352h24.92V77.72Zm0-10.976V62.992h24.92v3.752Zm24.92,5.376H12.488V68.032h24.92ZM12.488,61.48c-.672-.336-1.68-.728-2.912-1.232v20.72h2.912v-1.96h24.92V80.24H40.32V63.832l1.008-.728c.336-.28.448-.5.448-.672,0-.5-.952-1.344-2.912-2.576L37.016,61.7H13.048Zm66.136-1.9a21.569,21.569,0,0,1-3.248,9.016,9.949,9.949,0,0,1-5.656,4.592c-2.24.728-4.144.336-4.928-1.568A13.346,13.346,0,0,1,65.24,63.1,18.737,18.737,0,0,1,71.9,54.872a22.527,22.527,0,0,1,7.056-3.248A40.127,40.127,0,0,1,78.624,59.576Zm19.936-2.3a16.4,16.4,0,0,0-5.88-5.88,17.649,17.649,0,0,0-8.9-2.352,22.926,22.926,0,0,0-10.584,2.464,23.768,23.768,0,0,0-7.168,5.88,16.878,16.878,0,0,0-3.752,7.784A12.078,12.078,0,0,0,63,73.52c1.232,2.744,3.136,4.256,5.712,4.256,2.632,0,5.208-1.9,7.336-4.7a24.8,24.8,0,0,0,3.92-9.856,37.069,37.069,0,0,0,.84-7.672c-.056-1.4-.056-3.192-.168-4.312.5-.056,1.008-.168,1.456-.224A15.837,15.837,0,0,1,91.84,53.08a11.691,11.691,0,0,1,4.928,6.944,19.766,19.766,0,0,1,.728,9.24,12.741,12.741,0,0,1-4.816,7.952,24.642,24.642,0,0,1-6.832,3.3,27.8,27.8,0,0,1-6.72.952A27.249,27.249,0,0,1,76.16,81.3c-.448-.056-.784.168-.784.448-.056.28.224.5.784.56a24.081,24.081,0,0,0,9.016-.056,25.9,25.9,0,0,0,9.24-3.36,12.4,12.4,0,0,0,5.432-7.056,21.523,21.523,0,0,0,.728-7.728A14.91,14.91,0,0,0,98.56,57.28Zm27.1,9.24V59.688h22.344V66.52Zm22.344-14.336v6.272H125.664V52.184Zm-21.84-1.232c-1.456-.672-2.632-1.176-3.584-1.512V82.872l-.336.056c-2.408.336-4.7.672-6.888.84.9,3.136,1.736,4.7,2.464,4.7.448,0,.784-.672.952-1.96a185.944,185.944,0,0,0,20.664-5.656l-.336-1.288q-6.972,1.764-13.44,2.856V67.752h8.792a33.626,33.626,0,0,0,5.32,9.632c3.64,4.368,9.24,7.672,16.856,10.136a9.253,9.253,0,0,1,2.52-3.08c-6.272-1.456-11.2-3.528-14.728-6.216a66.669,66.669,0,0,0,8.792-6.1c.56.056.952.112,1.288.112.728,0,1.12-.168,1.12-.56,0-.616-1.176-1.68-3.584-3.192a68.6,68.6,0,0,1-8.792,8.792,30.741,30.741,0,0,1-7.112-9.52h11.872v1.624h2.968V53.136l1.288-.9a.7.7,0,0,0,.392-.56c0-.448-1.064-1.512-3.136-3.136L147.5,50.952H138.1V46.136c1.4-.5,2.128-1.008,2.128-1.456,0-.728-1.68-1.232-4.984-1.232v7.5Zm77.392,7.28a9.859,9.859,0,0,1,3.36,1.344,4.307,4.307,0,0,1,1.9,3.92c-.056,1.792-.392,3.472-.112,4.312a2.1,2.1,0,0,0,2.072,1.344,1.613,1.613,0,0,0,1.848-1.624,11.078,11.078,0,0,0-.56-4.928,9.169,9.169,0,0,0-8.064-5.544c-.9-.112-1.232,0-1.288.448C202.664,57.84,202.888,58.12,203.56,58.232Zm-28.952-4.48a4.275,4.275,0,0,1,1.176,3.192c0,1.736.056,5.488.112,7.952a32.394,32.394,0,0,0,.84,7,12.815,12.815,0,0,0,4.032,5.824,10.527,10.527,0,0,0,6.216,2.352c1.4.056,2.632-.112,2.8-.9a3,3,0,0,0-.9-2.24,5.1,5.1,0,0,1-.728-2.968,4.266,4.266,0,0,1,.728-2.128c.28-.336.224-.672,0-.784-.112-.168-.616-.056-1.008.336a7.17,7.17,0,0,0-1.512,2.24,3.872,3.872,0,0,0-.336,1.344c-.056.224-.168.672-.616.728a5.272,5.272,0,0,1-2.576-.168,6.5,6.5,0,0,1-2.632-1.792c-.616-.728-1.456-2.408-1.456-5.824-.056-3.36,0-5.768.112-8.12.168-2.3.112-4.312-.672-5.544a6.411,6.411,0,0,0-2.352-2.128c-.56-.28-1.736-.728-2.072-.112C173.6,52.464,174.1,53.3,174.608,53.752Zm91.336,16.856.616-1.12a37.348,37.348,0,0,0-3.416-3.752l-2.632,3.584h-9.3V57.56h17.192l.56-1.008a35.232,35.232,0,0,0-3.416-3.864l-2.688,3.584H251.216v-9.3c1.456-.5,2.24-1.008,2.24-1.512,0-.728-1.848-1.176-5.432-1.344V56.272h-10.7c.84-2.184,1.512-4.256,2.128-6.384,1.512-.28,2.3-.616,2.3-1.12,0-.672-1.68-1.456-5.04-2.3-1.568,8.736-4.424,16.072-8.456,21.952l1.008.728a44.486,44.486,0,0,0,7.56-11.592h11.2V69.32h-14.9l.5,1.288h14.392V84.216H227.248l.5,1.232H270.76l.56-1.008a34.093,34.093,0,0,0-3.528-3.976l-2.856,3.752h-13.72V70.608Zm29.736-18.76a172.137,172.137,0,0,1-8.232,20.944,3.1,3.1,0,0,1-3.136,1.736,10.56,10.56,0,0,1-1.68-.168V75.7a5.056,5.056,0,0,1,2.352.784c.952.672,1.456,2.128,1.456,4.2a20.363,20.363,0,0,1-.168,2.688c-.056.672-.168,1.456-.28,2.352-.056.56-.112.952-.112,1.008,0,1.176.5,1.792,1.624,1.792,1.624,0,2.408-1.12,2.408-3.248a29.52,29.52,0,0,0-.672-4.648,7.644,7.644,0,0,1-.28-1.848,14.37,14.37,0,0,1,.784-3.584l7.112-22.512Zm-10.36-6.664a9.849,9.849,0,0,1,4.144,4.872c.336,1.008.84,1.512,1.456,1.512,1.176,0,1.736-.616,1.736-1.9,0-2.184-2.24-4.032-6.72-5.432ZM282.3,56.048a9.094,9.094,0,0,1,3.752,5.152c.224.952.728,1.456,1.568,1.456,1.12,0,1.68-.56,1.68-1.848,0-2.24-2.128-4.2-6.384-5.656ZM319.928,71.84V83.6H301.84V71.84Zm-17.472-1.232a18.97,18.97,0,0,0-3.584-1.512V88.584h2.968V84.832h18.088v3.752h2.912V72.9l1.288-.84a.7.7,0,0,0,.392-.56c0-.448-1.064-1.568-3.136-3.248l-1.96,2.352h-7.168V60.528h14.952l.5-1.12a27.745,27.745,0,0,0-3.472-3.864l-2.688,3.7h-9.3V49.384c1.848-.28,4.76-.84,8.736-1.624a6.866,6.866,0,0,0,1.736.224c.56,0,.84-.112.84-.448,0-.56-1.12-1.568-3.528-3.136-5.6,2.352-13.272,4.2-23.072,5.6l.56,1.176c3.976-.336,7.9-.784,11.7-1.344V59.24H295.288l.56,1.288h13.384v10.08Zm70.112-7.5a79.9,79.9,0,0,1-7.336,3.528c-.5.224-.952.5-1.456.672-.112-.28-.28-.672-.448-1.008a12.623,12.623,0,0,1,3.024-4.648,10.1,10.1,0,0,1,4.7-2.688c1.96-.448,3.136.056,3.472.672C374.92,60.3,374.92,61.872,372.568,63.1Zm-12.544-14a3.9,3.9,0,0,0-.28-1.4c.168.056.392.056.616.112.784.112,1.176.28,1.344.5.168.168-.112.728-.952,1.176-.224.112-.448.224-.728.392A1.83,1.83,0,0,0,360.024,49.1Zm16.352,9.128c-1.96-1.4-5.152-1.064-7.672.112a15.105,15.105,0,0,0-5.992,5.04,5.654,5.654,0,0,0-.728.9,4.368,4.368,0,0,0-2.968-1.68,6.308,6.308,0,0,0-3.808.336c-.336.112-.84.336-1.288.5a7.3,7.3,0,0,0,.56-.84,59.835,59.835,0,0,0,3.416-5.88,16.569,16.569,0,0,0,1.344-3.192,4.24,4.24,0,0,0,1.008-.5,9.277,9.277,0,0,0,2.968-3.248c.448-.9.728-1.4.224-1.792a5.629,5.629,0,0,0-2.072-.672c-.336-.056-1.288-.28-2.072-.392a1.951,1.951,0,0,0-.784-.728,1.93,1.93,0,0,0-2.128-.056,1.611,1.611,0,0,0,.336,2.016,2.565,2.565,0,0,1,.728,2.688l-.84.168a8.265,8.265,0,0,1-4.424-.112c-1.232-.448-2.184-1.064-2.856-.168a2.751,2.751,0,0,0,1.064,3.192,7.816,7.816,0,0,0,4.648.728l1.344-.168a22.558,22.558,0,0,1-1.736,3.584c-1.68,2.856-3.64,5.656-5.824,7.168a26.984,26.984,0,0,1-2.856,1.624,3.081,3.081,0,0,0-1.176,2.464c0,1.008.112,1.736,1.344,1.792,1.232,0,2.744-1.008,4.088-2.912.672-.952,1.4-1.792,2.128-2.744a5.834,5.834,0,0,1,1.008-.56,6.3,6.3,0,0,1,3.584-.56,5.257,5.257,0,0,1,3.584,2.016,3.824,3.824,0,0,1,.728,2.24c-1.064.5-2.128,1.064-3.08,1.568a24.384,24.384,0,0,0-5.264,3.752,6.834,6.834,0,0,0-2.408,4.872,5.235,5.235,0,0,0,2.408,5.04,16.358,16.358,0,0,0,7.5,2.072,58.113,58.113,0,0,0,8.064-.5,8.807,8.807,0,0,0,3.024-.616c.84-.392.84-1.344-.056-2.016a4.38,4.38,0,0,0-3.416-.9,32.529,32.529,0,0,0-3.752.728,37.936,37.936,0,0,1-5.264.56,7.068,7.068,0,0,1-5.488-2.464c-1.064-1.568-.336-3.64.616-4.984a12.162,12.162,0,0,1,4.48-3.64,23.081,23.081,0,0,1,2.632-1.232v.336a21.872,21.872,0,0,1-.84,5.152c-.336,1.12.112,2.016,1.288,1.9a3.041,3.041,0,0,0,2.3-1.848,8.652,8.652,0,0,0,.672-4.872c-.056-.672-.168-1.344-.224-1.96.616-.28,1.232-.56,1.792-.784,2.128-.9,4.872-1.792,6.5-2.632a13.184,13.184,0,0,0,4.144-3.136C377.664,61.872,378.392,59.688,376.376,58.232Z" transform="translate(3816 182)" fill="#fff"/>
    <path id="パス_41" data-name="パス 41" d="M0,0H376" transform="translate(3816.5 298)" fill="#fff" stroke="#fff" stroke-width="1"/>
    <path id="パス_40" data-name="パス 40" d="M0,0H376" transform="translate(3816.5 314)" fill="#fff" stroke="#fff" stroke-width="1"/>
  </g>
</svg>
